<?xml version="1.0" encoding="UTF-8"?>
<svg width="148px" height="147px" viewBox="0 0 148 147" version="1.1" xmlns="http://www.w3.org/2000/svg" xmlns:xlink="http://www.w3.org/1999/xlink">
    <!-- Generator: Sketch 42 (36781) - http://www.bohemiancoding.com/sketch -->
    <title>chat</title>
    <desc>Created with Sketch.</desc>
    <defs></defs>
    <g id="Page-1" stroke="none" stroke-width="1" fill="none" fill-rule="evenodd">
        <g id="chat" transform="translate(-2.000000, -18.000000)">
            <g id="Layer_1" transform="translate(34.923077, 55.130216)" fill-rule="nonzero">
                <path d="M73.9795086,0.103909866 L3.7281926,0.103909866 C1.74101495,0.103909866 0.150921175,1.50967302 0.150921175,3.26707131 L0.150921175,106.593902 C0.150921175,108.351041 1.7407219,109.757064 3.7281926,109.757064 L73.9798016,109.757064 C75.9669793,109.757064 77.557073,108.351301 77.557073,106.593902 L77.557073,3.17922731 C77.4574357,1.50967302 75.9669793,0.103909866 73.9795086,0.103909866 Z" id="Shape" fill="#F1F3F7"></path>
                <rect id="Rectangle-path" fill="#0090FF" x="2.53576879" y="9.41744707" width="72.6361636" height="86.4571549"></rect>
                <g id="Group" transform="translate(32.821692, 4.405156)" fill="#DEDEDF">
                    <path d="M11.0500675,0.00414602958 L1.01424891,0.00414602958 C0.517527757,0.00414602958 0.119857787,0.355522037 0.119857787,0.795001173 C0.119857787,1.23422118 0.517234706,1.58585632 1.01424891,1.58585632 L11.0500675,1.58585632 C11.5467886,1.58585632 11.9444586,1.23448031 11.9444586,0.795001173 C11.8451143,0.355522037 11.4477374,0.00414602958 11.0500675,0.00414602958 Z" id="Shape"></path>
                    <ellipse id="Oval" cx="5.98263259" cy="98.1468853" rx="5.16707215" ry="4.5689246"></ellipse>
                </g>
                <path d="M102.10008,21.4546666 L45.6605421,21.4546666 C38.6056365,21.4546666 32.9418432,26.4628112 32.9418432,32.701031 L32.9418432,66.4403832 C32.9418432,72.678603 38.6056365,77.6867476 45.6605421,77.6867476 L49.8338789,77.6867476 L59.0749436,88.2303599 L68.3160083,77.6867476 L102.199717,77.6867476 C109.254622,77.6867476 114.918416,72.678603 114.918416,66.4403832 L114.918416,32.701031 C114.818778,26.4628112 109.154985,21.4546666 102.10008,21.4546666 Z" id="Shape" fill="#FBD303"></path>
                <g id="Group" transform="translate(45.715929, 44.569818)" fill="#FFFFFF">
                    <ellipse id="Oval" cx="7.59558433" cy="6.67044335" rx="7.45228248" ry="6.58959577"></ellipse>
                    <ellipse id="Oval" cx="28.1642356" cy="6.67044335" rx="7.45228248" ry="6.58959577"></ellipse>
                    <ellipse id="Oval" cx="48.7328869" cy="6.67044335" rx="7.45228248" ry="6.58959577"></ellipse>
                </g>
            </g>
            <text id="CHAT" font-family="Arial-Black, Arial Black" font-size="48" font-weight="700" fill="#FFFFFF">
                <tspan x="0" y="53">CHAT</tspan>
            </text>
        </g>
    </g>
</svg>